<?xml version="1.0" encoding="utf-8"?>
<!-- Generator: Adobe Illustrator 21.1.0, SVG Export Plug-In . SVG Version: 6.00 Build 0)  -->
<svg version="1.1" id="Layer_1" xmlns="http://www.w3.org/2000/svg" xmlns:xlink="http://www.w3.org/1999/xlink" x="0px" y="0px"
	 viewBox="0 0 141 38" style="enable-background:new 0 0 141 38;" xml:space="preserve">
<style type="text/css">
	.st0{fill:#019DD9;}
	.st1{clip-path:url(#SVGID_4_);fill:#019DD9;}
</style>
<g>
	<g>
		<g>
			<defs>
				<path id="SVGID_1_" d="M59,24.8l-1.1-2.3h-8.7l-1.1,2.3h-4.6l7-13.7h6.2l6.9,13.7H59z M56.5,19.5l-2.5-5.2h-0.8l-2.5,5.2H56.5z
					 M64.1,11.1h7.3l4,7.1l3.9-7.1h7.2v13.7h-3.9l0.1-10.2h-0.6l-6.6,9.9l0,0l-6.6-9.9H68l0.1,10.2h-3.9V11.1z M88.3,11.1h14.6v3.2
					H92.2v2h10.1v3H92.2v2.2h10.7v3.3H88.3V11.1z M103.4,11.1h5.3l4.3,5.5l4.1-5.5h5.2l-7.2,8.8v4.8H111V20L103.4,11.1z M130.6,10.9
					c2.8,0,4.8,0.1,5.8,0.2c1.5,0.2,2.5,1,2.8,2.3c0.2,0.9,0.4,2.4,0.4,4.5c0,2.1-0.1,3.7-0.4,4.5c-0.3,1.3-1.3,2.1-2.8,2.3
					c-1.1,0.1-3,0.2-5.8,0.2c-2.9,0-4.8-0.1-5.9-0.2c-1.5-0.2-2.5-1-2.8-2.3c-0.2-0.9-0.4-2.4-0.4-4.6c0-2.1,0.1-3.6,0.4-4.5
					c0.3-1.3,1.3-2.1,2.8-2.3C125.9,11,127.8,10.9,130.6,10.9z M130.7,14.5c-2.1,0-3.4,0.1-3.8,0.2c-0.5,0.1-0.8,0.4-1,0.9
					c-0.1,0.5-0.2,1.4-0.2,2.8c0,0.8,0,1.4,0.1,1.8c0.2,0.7,0.6,1.1,1.5,1.2c0.6,0.1,1.8,0.1,3.5,0.1c1.6,0,2.7,0,3.2-0.1
					c0.5-0.1,0.9-0.2,1.2-0.4c0.2-0.2,0.4-0.5,0.5-0.8c0.1-0.4,0.1-1,0.1-1.8c0-1,0-1.7-0.1-2.2c-0.1-0.5-0.2-0.8-0.4-1
					c-0.2-0.3-0.6-0.5-1-0.5C133.7,14.5,132.5,14.5,130.7,14.5z"/>
			</defs>
			<clipPath id="SVGID_2_">
				<use xlink:href="#SVGID_1_"  style="overflow:visible;"/>
			</clipPath>
		</g>
	</g>
	<g>
		<path class="st0" d="M33.2,1H4.9C2.6,1,0.7,3,0.7,5.4v27.7c0,2.4,1.9,4.4,4.2,4.4h28.3c2.3,0,4.2-2,4.2-4.4V5.4
			C37.4,3,35.5,1,33.2,1z M36.5,22L36.5,22c0,0.1-0.1,0.2-0.1,0.3c-0.5,1.2-1.3,2.3-2.3,3c-1,0.8-2.1,1.3-3.4,1.4
			c-0.6,0-1.3,0-1.9-0.2c-0.9-0.2-2.3-1-3.9-2.1c-1.4-1-3.1-2.2-4.8-3.6c-0.1-0.3,0-0.3,0.3-0.2l3.3,1.9l1.2,0.7
			c2.6,1.4,4.6,2.1,6.1,1.2c1.5-0.8,2.3-2.6,2.4-4.5c0.1-1.8-0.8-3.2-2.6-4.3C30,15.1,29.1,15,28,15.1c-0.6,0.1-1.2,0.2-1.8,0.4
			c-0.2,0.1-0.5,0.2-0.7,0.3c-0.7,0.4-1.4,0.8-2.1,1.3c-1.6,1.2-3.2,2.6-4.9,4.1c-2.4,2.2-4.8,4-7.3,5c-1.5,0.6-3,0.7-4.4,0.4
			c-2.2-0.4-4-1.9-5-3.9c-0.2-0.3-0.4-1-0.5-1.3c0,0,0,0,0,0c0,0,0,0,0-0.1l0,0c-0.1-0.6-0.2-1.2-0.2-1.8c0-0.7,0.1-1.5,0.3-2.1
			c0.7-2.5,2.8-4.5,5.3-5c0.4-0.1,0.8-0.1,1.1-0.1c0,0,0.1,0,0.1,0c1.3,0,2.6,0.4,3.6,1.1c2.4,1.3,4.7,3.4,6.7,5
			c0,0.2-0.1,0.3-0.3,0.3l-1.8-1.2c-0.7-0.4-1.4-0.9-2.2-1.3c-2.9-1.6-6.3-2.9-8.4,0.3c-1.5,2.8-0.2,5.8,2.1,7.1
			c0.2,0.1,0.4,0.2,0.6,0.3C8.7,23.9,9,23.9,9.2,24c0.8,0.1,1.6,0.1,2.4-0.2c0.9-0.3,1.8-0.8,2.8-1.4c0.7-0.4,1.4-0.9,2.1-1.5
			c2.7-2.4,5.4-4.9,8-6.7c1-0.6,2-1.1,2.9-1.4c0.6-0.2,1.1-0.4,1.8-0.4c1.1-0.2,2.2-0.1,3.2,0.3c1.3,0.6,2.6,1.5,3.5,3.1
			c0.2,0.4,0.4,0.8,0.6,1.3v0c0.3,0.8,0.4,1.6,0.4,2.5C36.9,20.4,36.7,21.3,36.5,22z"/>
		<g>
			<defs>
				<path id="SVGID_3_" d="M59,24.8l-1.1-2.3h-8.7l-1.1,2.3h-4.6l7-13.7h6.2l6.9,13.7H59z M56.5,19.5l-2.5-5.2h-0.8l-2.5,5.2H56.5z
					 M64.1,11.1h7.3l4,7.1l3.9-7.1h7.2v13.7h-3.9l0.1-10.2h-0.6l-6.6,9.9l0,0l-6.6-9.9H68l0.1,10.2h-3.9V11.1z M88.3,11.1h14.6v3.2
					H92.2v2h10.1v3H92.2v2.2h10.7v3.3H88.3V11.1z M103.4,11.1h5.3l4.3,5.5l4.1-5.5h5.2l-7.2,8.8v4.8H111V20L103.4,11.1z M130.6,10.9
					c2.8,0,4.8,0.1,5.8,0.2c1.5,0.2,2.5,1,2.8,2.3c0.2,0.9,0.4,2.4,0.4,4.5c0,2.1-0.1,3.7-0.4,4.5c-0.3,1.3-1.3,2.1-2.8,2.3
					c-1.1,0.1-3,0.2-5.8,0.2c-2.9,0-4.8-0.1-5.9-0.2c-1.5-0.2-2.5-1-2.8-2.3c-0.2-0.9-0.4-2.4-0.4-4.6c0-2.1,0.1-3.6,0.4-4.5
					c0.3-1.3,1.3-2.1,2.8-2.3C125.9,11,127.8,10.9,130.6,10.9z M130.7,14.5c-2.1,0-3.4,0.1-3.8,0.2c-0.5,0.1-0.8,0.4-1,0.9
					c-0.1,0.5-0.2,1.4-0.2,2.8c0,0.8,0,1.4,0.1,1.8c0.2,0.7,0.6,1.1,1.5,1.2c0.6,0.1,1.8,0.1,3.5,0.1c1.6,0,2.7,0,3.2-0.1
					c0.5-0.1,0.9-0.2,1.2-0.4c0.2-0.2,0.4-0.5,0.5-0.8c0.1-0.4,0.1-1,0.1-1.8c0-1,0-1.7-0.1-2.2c-0.1-0.5-0.2-0.8-0.4-1
					c-0.2-0.3-0.6-0.5-1-0.5C133.7,14.5,132.5,14.5,130.7,14.5z"/>
			</defs>
			<use xlink:href="#SVGID_3_"  style="overflow:visible;fill:#019DD9;"/>
			<clipPath id="SVGID_4_">
				<use xlink:href="#SVGID_3_"  style="overflow:visible;"/>
			</clipPath>
			<rect x="43.5" y="10.9" class="st1" width="96.2" height="14.1"/>
		</g>
	</g>
	<g>
		<g>
			<defs>
				<path id="SVGID_5_" d="M59,24.8l-1.1-2.3h-8.7l-1.1,2.3h-4.6l7-13.7h6.2l6.9,13.7H59z M56.5,19.5l-2.5-5.2h-0.8l-2.5,5.2H56.5z
					 M64.1,11.1h7.3l4,7.1l3.9-7.1h7.2v13.7h-3.9l0.1-10.2h-0.6l-6.6,9.9l0,0l-6.6-9.9H68l0.1,10.2h-3.9V11.1z M88.3,11.1h14.6v3.2
					H92.2v2h10.1v3H92.2v2.2h10.7v3.3H88.3V11.1z M103.4,11.1h5.3l4.3,5.5l4.1-5.5h5.2l-7.2,8.8v4.8H111V20L103.4,11.1z M130.6,10.9
					c2.8,0,4.8,0.1,5.8,0.2c1.5,0.2,2.5,1,2.8,2.3c0.2,0.9,0.4,2.4,0.4,4.5c0,2.1-0.1,3.7-0.4,4.5c-0.3,1.3-1.3,2.1-2.8,2.3
					c-1.1,0.1-3,0.2-5.8,0.2c-2.9,0-4.8-0.1-5.9-0.2c-1.5-0.2-2.5-1-2.8-2.3c-0.2-0.9-0.4-2.4-0.4-4.6c0-2.1,0.1-3.6,0.4-4.5
					c0.3-1.3,1.3-2.1,2.8-2.3C125.9,11,127.8,10.9,130.6,10.9z M130.7,14.5c-2.1,0-3.4,0.1-3.8,0.2c-0.5,0.1-0.8,0.4-1,0.9
					c-0.1,0.5-0.2,1.4-0.2,2.8c0,0.8,0,1.4,0.1,1.8c0.2,0.7,0.6,1.1,1.5,1.2c0.6,0.1,1.8,0.1,3.5,0.1c1.6,0,2.7,0,3.2-0.1
					c0.5-0.1,0.9-0.2,1.2-0.4c0.2-0.2,0.4-0.5,0.5-0.8c0.1-0.4,0.1-1,0.1-1.8c0-1,0-1.7-0.1-2.2c-0.1-0.5-0.2-0.8-0.4-1
					c-0.2-0.3-0.6-0.5-1-0.5C133.7,14.5,132.5,14.5,130.7,14.5z"/>
			</defs>
			<clipPath id="SVGID_6_">
				<use xlink:href="#SVGID_5_"  style="overflow:visible;"/>
			</clipPath>
		</g>
	</g>
</g>
</svg>
